<svg width="106" height="104" viewBox="0 0 106 104" fill="none" xmlns="http://www.w3.org/2000/svg">
<path fill-rule="evenodd" clip-rule="evenodd" d="M102.063 10.1735C101.652 10.5443 101.825 11.3454 102.216 11.7377C102.899 12.4229 103.103 13.3292 102.672 13.7619C102.241 14.1947 101.337 13.99 100.654 13.3048C100.589 13.2401 100.529 13.1734 100.473 13.1053C100.158 12.7207 99.4751 12.5049 99.1057 12.8376L98.8734 13.0468C98.5141 13.3706 98.7499 14.2682 99.0915 14.6108C99.7027 15.2238 99.8484 16.0717 99.417 16.5044C98.9855 16.9372 98.1403 16.791 97.5291 16.1779C97.1578 15.8055 96.1896 15.4644 95.7989 15.8163L95.5403 16.0492C95.2391 16.3206 95.3549 16.8703 95.6412 17.1574C96.2165 17.7344 96.333 18.553 95.9016 18.9857C95.4702 19.4185 94.6541 19.3015 94.0788 18.7245C94.0745 18.7202 94.0701 18.7158 94.0658 18.7114C93.7489 18.3876 93.1493 18.203 92.8128 18.5062C91.4509 19.7329 89.3554 19.62 88.1323 18.254L86.5025 16.4337C85.2795 15.0677 85.3921 12.9658 86.754 11.7391C86.946 11.5661 86.8988 11.2452 86.7093 11.0695C86.6918 11.0532 86.6745 11.0365 86.6575 11.0194C86.0822 10.4424 85.9948 9.59463 86.4622 9.12581C86.9296 8.657 87.7748 8.74468 88.35 9.3217C88.6018 9.57424 89.0376 9.682 89.3025 9.44336L89.7523 9.03825C90.0303 8.78784 89.9162 8.28076 89.652 8.01575C89.0768 7.43873 89.0185 6.56171 89.5218 6.05683C90.0252 5.55196 90.8995 5.6104 91.4748 6.18743C91.7822 6.49569 92.3617 6.68773 92.6851 6.39644L93.0634 6.05561C93.3969 5.75527 93.2239 5.06873 92.907 4.75089C92.3317 4.17386 92.2152 3.35531 92.6466 2.92256C93.0781 2.4898 93.8941 2.60672 94.4694 3.18375C94.8212 3.53659 95.5705 3.79733 95.9407 3.46392L98.8414 0.851027C100.203 -0.375722 102.299 -0.262841 103.522 1.10318L105.152 2.92348C106.375 4.2895 106.262 6.39136 104.9 7.61812L102.063 10.1735ZM93.8347 15.1664C94.0448 15.4224 94.4221 15.459 94.6773 15.2483L96.0769 14.0923C96.3321 13.8815 96.3687 13.5031 96.1585 13.2471C95.9484 12.9911 95.5711 12.9545 95.3159 13.1653L93.9163 14.3213C93.6611 14.5321 93.6245 14.9104 93.8347 15.1664ZM92.4004 9.35146C92.1441 9.0756 91.7133 9.06039 91.4383 9.31749L90.3888 10.2986C90.1138 10.5557 90.0986 10.9877 90.3549 11.2636C90.6112 11.5394 91.042 11.5546 91.317 11.2975L92.3665 10.3164C92.6415 10.0594 92.6567 9.62731 92.4004 9.35146ZM93.3885 8.37656C93.1321 8.1007 93.1473 7.66866 93.4223 7.41157L94.6285 6.28401C94.9035 6.02692 95.3343 6.04213 95.5906 6.31798C95.8469 6.59384 95.8317 7.02587 95.5567 7.28297L94.3505 8.41053C94.0755 8.66762 93.6448 8.65241 93.3885 8.37656ZM99.5927 10.5204C99.8029 10.7763 99.7663 11.1547 99.5111 11.3655L98.1115 12.5215C97.8563 12.7323 97.479 12.6956 97.2689 12.4396C97.0587 12.1836 97.0953 11.8052 97.3505 11.5944L98.7501 10.4385C99.0053 10.2277 99.3826 10.2644 99.5927 10.5204ZM100.438 9.50729C100.326 9.35869 100.354 9.14671 100.503 9.03391L101.122 8.56184C101.356 8.3837 101.69 8.42947 101.867 8.66404C102.045 8.89862 101.999 9.23317 101.765 9.41127L101.096 9.92117C100.975 10.0131 100.803 9.98951 100.711 9.86842L100.438 9.50729ZM96.2649 4.78224C96.2124 4.83281 96.2107 4.91641 96.2611 4.96905L96.8137 5.54635C96.8678 5.60283 96.9572 5.60466 97.0136 5.55046L97.7287 4.86168C97.9421 4.65624 97.949 4.31623 97.7441 4.10225C97.5393 3.88831 97.2003 3.88134 96.987 4.08685L96.2649 4.78224ZM92.9268 16.3277C92.9986 16.4203 92.982 16.5539 92.8897 16.626L92.6589 16.8061C92.4271 16.9869 92.0931 16.9451 91.9128 16.7126C91.7325 16.4802 91.7741 16.1451 92.0059 15.9643L92.2676 15.76C92.3429 15.7013 92.4513 15.7148 92.5099 15.7904L92.9268 16.3277ZM89.5607 12.7716C89.653 12.6995 89.6697 12.5659 89.5978 12.4733L89.1809 11.9359C89.1224 11.8605 89.0139 11.8469 88.9387 11.9056L88.6769 12.1099C88.4452 12.2907 88.4035 12.6258 88.5838 12.8583C88.7641 13.0907 89.0982 13.1325 89.3299 12.9516L89.5607 12.7716Z" fill="white"/>
<path d="M85.2621 26.0781L90.2373 21.0878L87.6416 18.4842L82.6664 23.4745L85.2621 26.0781Z" fill="white"/>
<path d="M84.8295 26.5121L79.8543 31.5024L77.2585 28.8988L82.2338 23.9085L84.8295 26.5121Z" fill="white"/>
<path d="M74.7709 36.6012L79.4216 31.9363L76.8259 29.3327L72.1752 33.9976L74.7709 36.6012Z" fill="white"/>
<path d="M73.7975 36.9267L70.1202 40.6152L67.5245 38.0115L71.2018 34.323L73.7975 36.9267Z" fill="white"/>
<path d="M66.1185 44.6291L69.4713 41.2661L66.8755 38.6624L63.5227 42.0254L66.1185 44.6291Z" fill="white"/>
<path d="M65.4695 45.28L62.1167 48.643L59.5209 46.0393L62.8738 42.6763L65.4695 45.28Z" fill="white"/>
<path d="M58.6557 51.4636L61.3596 48.7515L58.7638 46.1478L56.0599 48.86L58.6557 51.4636Z" fill="white"/>
<path fill-rule="evenodd" clip-rule="evenodd" d="M30.7326 46.7939C29.5243 50.9492 27.4125 53.7807 24.483 54.1072C23.5516 54.272 22.6739 54.4133 21.8367 54.548L21.8271 54.5496C16.864 55.348 13.3237 55.9175 8.4696 59.8079C7.69226 60.3592 6.95095 60.9838 6.25518 61.6817C6.08596 61.8514 5.92112 62.0239 5.76052 62.1989C5.64551 62.309 5.52964 62.4209 5.41295 62.5346L5.40901 62.5307C5.35257 62.5878 5.2966 62.6452 5.24109 62.7029C-1.82372 70.0407 -1.74624 81.7341 5.47384 88.9761L14.9784 98.5095C22.1984 105.751 33.8562 105.829 41.1717 98.7432L41.172 98.743L41.1725 98.7425L41.2185 98.6979L41.2596 98.6576C41.2877 98.63 41.3157 98.6023 41.3437 98.5745L41.3398 98.5706C41.4531 98.4535 41.5647 98.3374 41.6745 98.222C41.849 98.061 42.0209 97.8956 42.1902 97.7258C42.886 97.0279 43.5087 96.2843 44.0583 95.5045C47.9369 90.6357 48.5047 87.0848 49.3007 82.1066L49.3011 82.1034L49.3038 82.087C49.4376 81.2502 49.578 80.3731 49.7417 79.4426C50.0672 76.5042 52.8901 74.386 57.0328 73.174C58.9918 72.6009 60.7398 71.3858 62.2162 70.0582C66.0487 66.008 66.7159 60.0565 64.206 55.3828C63.5245 54.2636 62.7154 53.2005 61.7786 52.2147C61.6899 52.1308 61.6002 52.0484 61.5096 51.9676L61.5246 51.9525L61.4597 51.8871L60.353 50.777L52.9316 58.2209L50.3276 55.609L47.6426 58.3022L45.5594 56.2127L48.2444 53.5195L45.6404 50.9076L53.0618 43.4637L51.9551 42.3536L51.8899 42.2885L51.8748 42.3036C51.7942 42.2127 51.7121 42.1227 51.6284 42.0337C50.6456 41.094 49.5857 40.2825 48.4699 39.599C43.8105 37.0815 37.8769 37.7506 33.839 41.5948C32.5154 43.0757 31.3039 44.8289 30.7326 46.7939ZM28.5106 83.0961C28.7655 83.3517 29.3166 83.2136 29.7414 82.7875C30.1634 82.3643 30.3021 81.8161 30.0542 81.5583L29.6063 81.109C28.8825 80.7818 28.2043 80.32 27.6096 79.7235C27.015 79.127 26.5546 78.4469 26.2284 77.7208L26.1996 77.6919C25.4757 77.3647 24.7977 76.9029 24.2029 76.3064C23.6083 75.7099 23.1479 75.0298 22.8217 74.3037L22.3738 73.8544C22.1166 73.6058 21.5702 73.745 21.1483 74.1682C20.7234 74.5944 20.5857 75.147 20.8406 75.4027L28.5106 83.0961ZM28.3239 75.4913C31.4878 78.6648 36.6175 78.6648 39.7815 75.4913C42.9454 72.3178 42.9453 67.1725 39.7815 63.999C36.6176 60.8255 31.4878 60.8255 28.3239 63.999C25.16 67.1725 25.16 72.3178 28.3239 75.4913Z" fill="white"/>
<path d="M52.9234 57.2133L55.0865 55.0436L52.4907 52.44L50.3276 54.6097L52.9234 57.2133Z" fill="white"/>
<path d="M58.0067 52.1146L55.5191 54.6097L52.9234 52.006L55.4109 49.5109L58.0067 52.1146Z" fill="white"/>
<path d="M81.9217 22.8476L86.8969 17.8573L84.3012 15.2537L79.326 20.244L81.9217 22.8476Z" fill="white"/>
<path d="M81.4891 23.2816L76.5139 28.2719L73.9181 25.6683L78.8933 20.6779L81.4891 23.2816Z" fill="white"/>
<path d="M71.4305 33.3707L76.0812 28.7058L73.4855 26.1022L68.8348 30.7671L71.4305 33.3707Z" fill="white"/>
<path d="M70.4571 33.6962L66.7798 37.3847L64.1841 34.781L67.8614 31.0925L70.4571 33.6962Z" fill="white"/>
<path d="M62.7781 41.3986L66.1309 38.0356L63.5351 35.4319L60.1823 38.7949L62.7781 41.3986Z" fill="white"/>
<path d="M62.1291 42.0495L58.7763 45.4125L56.1805 42.8088L59.5334 39.4458L62.1291 42.0495Z" fill="white"/>
<path d="M55.3153 48.2331L58.0192 45.521L55.4234 42.9173L52.7195 45.6294L55.3153 48.2331Z" fill="white"/>
<path d="M49.583 53.9828L51.7461 51.8131L49.1503 49.2094L46.9872 51.3791L49.583 53.9828Z" fill="white"/>
<path d="M54.6663 48.884L52.1787 51.3792L49.583 48.7755L52.0706 46.2804L54.6663 48.884Z" fill="white"/>
</svg>
