<svg width="155" height="109" viewBox="0 0 155 109" fill="none" xmlns="http://www.w3.org/2000/svg">
<path d="M29.7768 76.828L28.8283 74.9024L71.3159 53.975L72.2644 55.9007L29.7768 76.828Z" fill="white"/>
<path d="M29.98 77.2407L30.9285 79.1663L73.4161 58.2389L72.4677 56.3133L29.98 77.2407Z" fill="white"/>
<path d="M74.6326 55.2469L75.5811 57.1726L77.2048 56.3728L76.2564 54.4472L74.6326 55.2469Z" fill="white"/>
<path d="M78.4213 53.3808L79.3698 55.3064L80.9935 54.5066L80.0451 52.581L78.4213 53.3808Z" fill="white"/>
<path d="M82.21 51.5147L83.1585 53.4403L84.7822 52.6405L83.8338 50.7149L82.21 51.5147Z" fill="white"/>
<path d="M85.9987 49.6485L86.9472 51.5741L88.5709 50.7744L87.6225 48.8487L85.9987 49.6485Z" fill="white"/>
<path d="M89.7874 47.7824L90.7359 49.708L93.4421 48.3751L92.4937 46.4494L89.7874 47.7824Z" fill="white"/>
<path d="M94.6586 45.3831L95.6071 47.3087L98.3133 45.9757L97.3649 44.0501L94.6586 45.3831Z" fill="white"/>
<path d="M99.5298 42.9838L100.478 44.9094L103.185 43.5764L102.236 41.6508L99.5298 42.9838Z" fill="white"/>
<path d="M104.401 40.5844L105.349 42.5101L108.326 41.0438L107.378 39.1182L104.401 40.5844Z" fill="white"/>
<path d="M109.543 38.0518L110.491 39.9774L112.927 38.7778L111.978 36.8522L109.543 38.0518Z" fill="white"/>
<path d="M114.143 35.7858L115.092 37.7114L117.798 36.3785L116.85 34.4528L114.143 35.7858Z" fill="white"/>
<path d="M119.015 33.3865L119.963 35.3121L122.669 33.9792L121.721 32.0535L119.015 33.3865Z" fill="white"/>
<path d="M74.4294 54.8343L73.4809 52.9087L75.1046 52.1089L76.0531 54.0345L74.4294 54.8343Z" fill="white"/>
<path d="M78.2181 52.9682L77.2696 51.0425L78.8933 50.2428L79.8418 52.1684L78.2181 52.9682Z" fill="white"/>
<path d="M82.0068 51.102L81.0583 49.1764L82.6821 48.3766L83.6305 50.3023L82.0068 51.102Z" fill="white"/>
<path d="M85.7955 49.2359L84.847 47.3103L86.4708 46.5105L87.4192 48.4361L85.7955 49.2359Z" fill="white"/>
<path d="M89.5842 47.3698L88.6357 45.4441L91.342 44.1112L92.2904 46.0368L89.5842 47.3698Z" fill="white"/>
<path d="M94.4554 44.9704L93.5069 43.0448L96.2131 41.7119L97.1616 43.6375L94.4554 44.9704Z" fill="white"/>
<path d="M99.3266 42.5711L98.3781 40.6455L101.084 39.3125L102.033 41.2382L99.3266 42.5711Z" fill="white"/>
<path d="M104.198 40.1718L103.249 38.2462L106.226 36.7799L107.175 38.7056L104.198 40.1718Z" fill="white"/>
<path d="M109.34 37.6392L108.391 35.7136L110.827 34.5139L111.775 36.4395L109.34 37.6392Z" fill="white"/>
<path d="M113.94 35.3732L112.992 33.4475L115.698 32.1146L116.646 34.0402L113.94 35.3732Z" fill="white"/>
<path d="M118.811 32.9739L117.863 31.0482L120.569 29.7153L121.518 31.6409L118.811 32.9739Z" fill="white"/>
<path fill-rule="evenodd" clip-rule="evenodd" d="M129.92 20.2064L125.958 22.158L124.999 20.2126L122.894 21.2494L123.853 23.1949L121.19 24.5061L122.087 26.3261L69.6801 52.1392C64.5775 47.0293 56.6635 45.4495 49.905 48.7784C46.7622 50.3264 44.3085 52.7195 42.6774 55.557C36.2565 52.3081 28.4896 51.9959 21.5956 55.3916C9.86736 61.1683 5.10666 75.4887 10.9623 87.377C16.8179 99.2653 31.0724 104.22 42.8007 98.443C49.6945 95.0474 54.181 88.6999 55.5191 81.6296C58.763 82.066 62.1558 81.5795 65.2988 80.0315C72.0802 76.6912 75.6528 69.4162 74.678 62.2326L127.064 36.43L127.96 38.2499L130.622 36.9387L131.58 38.8841L133.685 37.8473L132.727 35.9018L136.69 33.9502L137.648 35.8956L139.753 34.8588L138.795 32.9133L142.757 30.9617L143.715 32.9071L145.82 31.8703L144.862 29.9248L147.586 28.5831L140.817 14.8392L138.092 16.181L137.134 14.2355L135.029 15.2724L135.987 17.2178L132.025 19.1695L131.067 17.2241L128.962 18.2609L129.92 20.2064ZM32.0802 81.5045L31.1317 79.5789L73.6194 58.6515L74.5001 60.4396L76.6651 59.3733L75.7843 57.5852L77.4081 56.7854L78.2888 58.5735L80.4538 57.5071L79.573 55.719L81.1968 54.9193L82.0775 56.7074L84.2425 55.641L83.3617 53.8529L84.9855 53.0531L85.8662 54.8412L88.0312 53.7749L87.1505 51.9868L88.7742 51.187L89.6549 52.9751L91.8199 51.9087L90.9392 50.1206L93.6454 48.7877L94.5261 50.5758L96.6911 49.5094L95.8104 47.7213L98.5166 46.3884L99.3973 48.1764L101.562 47.1101L100.682 45.322L103.388 43.9891L104.268 45.7771L106.433 44.7108L105.553 42.9227L108.53 41.4564L109.41 43.2445L111.575 42.1782L110.695 40.3901L113.13 39.1904L114.011 40.9785L116.176 39.9121L115.295 38.1241L118.001 36.7911L118.882 38.5792L121.047 37.5128L120.166 35.7247L122.873 34.3918L123.753 36.1799L125.918 35.1135L125.038 33.3254L127.473 32.1258L127.27 31.7131L124.834 32.9128L123.886 30.9872L126.321 29.7875L126.118 29.3749L123.683 30.5745L122.734 28.6489L125.17 27.4493L124.966 27.0366L122.531 28.2363L122.395 27.9612L120.23 29.0276L120.366 29.3026L117.66 30.6356L117.524 30.3605L115.359 31.4269L115.495 31.702L112.788 33.0349L112.653 32.7598L110.488 33.8262L110.623 34.1013L108.188 35.3009L108.052 35.0258L105.887 36.0922L106.023 36.3673L103.046 37.8335L102.911 37.5585L100.746 38.6248L100.881 38.8999L98.1749 40.2329L98.0394 39.9578L95.8744 41.0241L96.0099 41.2992L93.3037 42.6322L93.1682 42.3571L91.0032 43.4235L91.1387 43.6985L88.4325 45.0315L88.297 44.7564L86.132 45.8228L86.2675 46.0979L84.6438 46.8976L84.5083 46.6225L82.3433 47.6889L82.4788 47.964L80.8551 48.7638L80.7196 48.4887L78.5546 49.555L78.6901 49.8301L77.0664 50.6299L76.9309 50.3548L74.7659 51.4212L74.9014 51.6963L73.2777 52.496L73.1422 52.221L70.9772 53.2873L71.1127 53.5624L28.6251 74.4898L26.2539 69.6757L21.9239 71.8085L30.1214 88.4513L34.4514 86.3186L32.2834 81.9172L128.625 34.464L128.422 34.0514L32.0802 81.5045Z" fill="white"/>
</svg>
