<svg width="98" height="86" viewBox="0 0 98 86" fill="none" xmlns="http://www.w3.org/2000/svg">
<path fill-rule="evenodd" clip-rule="evenodd" d="M23.8415 0C10.6742 0 0 10.7867 0 24.0928C0 33.1519 4.9477 41.0432 12.2614 45.1578V86H87.101V44.33C93.66 40.0375 98 32.5773 98 24.0928C98 10.7867 87.3258 0 74.1585 0H23.8415ZM30.9713 49.5623H68.3911V62.9625H30.9713V49.5623ZM36.4208 77.8312C38.6279 77.8312 40.4171 76.0232 40.4171 73.7928C40.4171 71.5625 38.6279 69.7544 36.4208 69.7544C34.2137 69.7544 32.4245 71.5625 32.4245 73.7928C32.4245 76.0232 34.2137 77.8312 36.4208 77.8312ZM53.6775 73.7928C53.6775 76.0232 51.8883 77.8312 49.6812 77.8312C47.4741 77.8312 45.6849 76.0232 45.6849 73.7928C45.6849 71.5625 47.4741 69.7544 49.6812 69.7544C51.8883 69.7544 53.6775 71.5625 53.6775 73.7928ZM62.9416 77.8312C65.1487 77.8312 66.9379 76.0232 66.9379 73.7928C66.9379 71.5625 65.1487 69.7544 62.9416 69.7544C60.7345 69.7544 58.9453 71.5625 58.9453 73.7928C58.9453 76.0232 60.7345 77.8312 62.9416 77.8312ZM48.9546 23.3128C48.9546 18.1846 47.131 13.2271 43.8162 9.34409C40.5015 5.46106 35.9162 2.91103 30.8964 2.15883C25.8766 1.40664 20.7564 2.50237 16.4692 5.2463C12.1821 7.99022 9.01339 12.1996 7.54079 17.1072C6.0682 22.0147 6.38976 27.2936 8.44687 31.9816C10.504 36.6696 14.1596 40.4544 18.7475 42.6463C23.3353 44.8381 28.5498 45.291 33.4404 43.9223C38.3311 42.5536 42.5722 39.4545 45.3906 35.19L34.4001 27.7724C33.3419 29.3736 31.7494 30.5373 29.9131 31.0512C28.0768 31.5651 26.1189 31.3951 24.3962 30.5721C22.6736 29.7491 21.301 28.3279 20.5286 26.5677C19.7562 24.8075 19.6355 22.8254 20.1884 20.9827C20.7413 19.14 21.9311 17.5595 23.5408 16.5292C25.1506 15.499 27.0731 15.0875 28.9579 15.37C30.8427 15.6524 32.5644 16.6099 33.809 18.0679C35.0536 19.5259 35.7383 21.3873 35.7383 23.3128H48.9546ZM51.1022 20.9872C51.4794 15.8796 53.658 11.0785 57.2418 7.4569L66.4665 16.7788C65.092 18.1678 64.2564 20.0093 64.1117 21.9682C63.9671 23.9271 64.5229 25.8735 65.6783 27.4533C66.8336 29.0331 68.5116 30.1414 70.4072 30.5767C72.3027 31.012 74.2899 30.7454 76.0074 29.8253C77.7249 28.9052 79.0586 27.3927 79.7659 25.563C80.4732 23.7333 80.5072 21.7078 79.8617 19.8549C79.2162 18.002 77.934 16.4447 76.2484 15.4663C74.5628 14.4879 72.5857 14.1533 70.6766 14.5234L68.2188 1.57625C73.1964 0.611329 78.3513 1.48371 82.7462 4.03475C87.1411 6.58579 90.484 10.646 92.1671 15.4771C93.8501 20.3083 93.7615 25.5893 91.9173 30.36C90.0731 35.1306 86.5958 39.074 82.1178 41.4729C77.6399 43.8719 72.4586 44.5671 67.5163 43.4321C62.574 42.2972 58.1989 39.4074 55.1866 35.2884C52.1744 31.1694 50.7251 26.0947 51.1022 20.9872Z" fill="white"/>
<path d="M48.9546 53.8761L62.8768 60.1403H35.0324L48.9546 53.8761Z" fill="white"/>
</svg>
