<svg width="84" height="80" viewBox="0 0 84 80" fill="none" xmlns="http://www.w3.org/2000/svg">
<path fill-rule="evenodd" clip-rule="evenodd" d="M33.4133 0H24.7333V2.28216H22.82V0H14.14V2.28216H0V9.62311H6.48667V12.2476H78.0733V9.62311H84V2.28216H73.36V0H64.68V2.28216H62.7667V0H54.0867V2.28216H52.1733V0H43.4933V2.28216H33.4133V0ZM1.54001 3.34717H10.22V6.69434H1.54001V3.34717ZM10.5467 3.34717H19.2267V6.69434H10.5467V3.34717ZM28.2333 3.34717H19.5533V6.69434H28.2333V3.34717ZM28.56 3.34717H37.24V6.69434H28.56V3.34717ZM46.2467 3.34717H37.5667V6.69434H46.2467V3.34717ZM46.5733 3.34717H55.2533V6.69434H46.5733V3.34717ZM64.26 3.34717H55.58V6.69434H64.26V3.34717ZM64.5867 3.34717H73.2667V6.69434H64.5867V3.34717ZM82.2733 3.34717H73.5933V6.69434H82.2733V3.34717Z" fill="white"/>
<path d="M17.1628 12.2638L12.2472 14.8657L63.2644 78.8962L68.18 76.2943L17.1628 12.2638Z" fill="white"/>
<path d="M65.8595 12.2638L70.7751 14.8657L19.1728 79.6305L14.2573 77.0286L65.8595 12.2638Z" fill="white"/>
<path d="M9.36037 12.2638H21.1702V15.8289H9.36037V12.2638Z" fill="white"/>
<path d="M9.36037 76.4349H21.1702V80H9.36037V76.4349Z" fill="white"/>
<path d="M62.0234 12.2638H73.8332V15.8289H62.0234V12.2638Z" fill="white"/>
<path d="M60.7112 76.4349H72.521V80H60.7112V76.4349Z" fill="white"/>
</svg>
