<svg width="100" height="92" viewBox="0 0 100 92" fill="none" xmlns="http://www.w3.org/2000/svg">
<path fill-rule="evenodd" clip-rule="evenodd" d="M76.3098 0.486707H76.3093C76.2929 0.216543 75.8405 0 75.2847 0C74.729 0 74.2766 0.216543 74.2601 0.486707H74.2597V5.89239C61.1433 5.93839 50.6834 6.81661 50.6834 7.89327C50.6834 8.96992 61.1433 9.84814 74.2597 9.89414V20.2286H76.3098V9.89452C89.4795 9.85322 100 8.97303 100 7.89327C100 6.8135 89.4795 5.93331 76.3098 5.89201V0.486707ZM74.2597 6.67589C72.8734 6.71092 71.8679 6.81511 71.8679 6.9382C71.8679 6.96094 71.9022 6.98303 71.9669 7.00416C72.2524 6.9109 73.1295 6.83637 74.2597 6.80782V6.67589ZM76.3098 6.80782C77.44 6.83637 78.3171 6.9109 78.6026 7.00416C78.6673 6.98303 78.7016 6.96094 78.7016 6.9382C78.7016 6.81511 77.6961 6.71092 76.3098 6.67589V6.80782Z" fill="white"/>
<path fill-rule="evenodd" clip-rule="evenodd" d="M72.836 20.5714C65.3299 20.5714 58.6958 21.3418 54.689 22.5203C49.4139 19.6029 43.3512 17.9429 36.9021 17.9429C16.5216 17.9429 0 34.5211 0 54.9714C0 63.9124 3.15809 72.1133 8.41603 78.5121L3.90713 84.4472L3.90637 84.4482L3.90563 84.4492L3.9019 84.4541L3.90235 84.4544C3.83915 84.5717 4.22635 85.0006 4.78029 85.4243C5.33423 85.8481 5.849 86.1091 5.94495 86.0169L5.94542 86.0172L10.1524 80.4795C16.8755 87.576 26.3739 92 36.9021 92C47.5046 92 57.0629 87.5132 63.7938 80.3286L68.1155 86.0172L68.116 86.0169C68.2119 86.1091 68.7267 85.8481 69.2806 85.4244C69.8346 85.0006 70.2218 84.5717 70.1586 84.4544L70.159 84.4541L70.1553 84.4492L70.1546 84.4482L70.1538 84.4472L65.5211 78.3493C66.1083 77.6264 66.6688 76.8809 67.2011 76.1143H67.426V75.7867C68.5097 74.1896 69.4723 72.503 70.3003 70.7403L72.4443 68.5889L77.2189 73.3799L77.4474 76H75.7403V78.9714H80.7517V76.9248L86.0099 82.201L88.1844 80.0191L78.8191 70.6217L77.5977 56.6132L79.4217 54.783L83.7445 70.9714H82.3462V73.9428H87.3576V70.9714H85.7783L81.0257 53.1735L81.785 52.4116C89.5618 51.7021 94.9886 50.0961 94.9886 48.2286V25.6H94.8792C94.9516 25.4496 94.9886 25.2971 94.9886 25.1429C94.9886 22.6181 85.0705 20.5714 72.836 20.5714ZM72.7221 20.9143C65.4084 20.9143 58.9443 21.627 55.0406 22.7173C58.0227 24.4095 60.7468 26.5061 63.139 28.9328C66.0263 29.2136 69.2801 29.3714 72.7221 29.3714C84.6421 29.3714 94.3052 27.4782 94.3052 25.1429C94.3052 22.8075 84.6421 20.9143 72.7221 20.9143ZM74.3736 52.8H73.7417L73.7415 52.7962C74.3073 52.7916 74.8677 52.7825 75.4219 52.7692L75.5552 54.2989L74.3736 55.4846V52.8ZM75.9051 58.3116L74.3736 59.8484V66.1609L76.802 68.5976L75.9051 58.3116ZM79.2361 75.404L79.288 76H79.8301L79.2361 75.404ZM37.4715 90.2858C56.0907 90.2858 71.1845 75.1402 71.1845 56.4572C71.1845 37.7742 56.0907 22.6286 37.4715 22.6286C18.8524 22.6286 3.75854 37.7742 3.75854 56.4572C3.75854 75.1402 18.8524 90.2858 37.4715 90.2858Z" fill="white"/>
</svg>
