<svg width="137" height="71" viewBox="0 0 137 71" fill="none" xmlns="http://www.w3.org/2000/svg">
<path d="M34.1543 61.7155H102.066V70.3119H34.1543V61.7155Z" fill="white"/>
<path fill-rule="evenodd" clip-rule="evenodd" d="M0 0H29.9843V56.6968H0V0ZM23.9279 14.609C23.9279 19.5488 19.9272 23.5533 14.9922 23.5533C10.0571 23.5533 6.05644 19.5488 6.05644 14.609C6.05644 9.66919 10.0571 5.66471 14.9922 5.66471C19.9272 5.66471 23.9279 9.66919 23.9279 14.609ZM14.9922 52.97C20.9142 52.97 25.715 48.1646 25.715 42.2368C25.715 36.3091 20.9142 31.5037 14.9922 31.5037C9.07008 31.5037 4.26929 36.3091 4.26929 42.2368C4.26929 48.1646 9.07008 52.97 14.9922 52.97Z" fill="white"/>
<path fill-rule="evenodd" clip-rule="evenodd" d="M106.236 0H136.22V56.6968H106.236V0ZM130.164 14.609C130.164 19.5488 126.163 23.5533 121.228 23.5533C116.293 23.5533 112.292 19.5488 112.292 14.609C112.292 9.66919 116.293 5.66471 121.228 5.66471C126.163 5.66471 130.164 9.66919 130.164 14.609ZM121.228 52.97C127.15 52.97 131.951 48.1646 131.951 42.2368C131.951 36.3091 127.15 31.5037 121.228 31.5037C115.306 31.5037 110.505 36.3091 110.505 42.2368C110.505 48.1646 115.306 52.97 121.228 52.97Z" fill="white"/>
<path fill-rule="evenodd" clip-rule="evenodd" d="M102.066 5.01873H34.1543V46.9077H58.529V51.8271H47.7565V56.6968H88.4637V51.8271H77.7408V46.9077H102.066V5.01873ZM37.2818 8.7952C37.2818 7.7798 38.1042 6.95666 39.1186 6.95666H97.1016C98.116 6.95666 98.9383 7.7798 98.9383 8.7952V43.1313C98.9383 44.1467 98.116 44.9698 97.1016 44.9698H39.1186C38.1042 44.9698 37.2818 44.1467 37.2818 43.1313V8.7952Z" fill="white"/>
</svg>
