<svg width="130" height="56" viewBox="0 0 130 56" fill="none" xmlns="http://www.w3.org/2000/svg">
<path d="M21.9589 0H48.4164V9.52697H21.9589V0Z" fill="white"/>
<path d="M51.7713 0V9.52697H130V0H51.7713Z" fill="white"/>
<path d="M21.9589 15.491H48.4164V25.018H46.4012C45.5638 24.725 44.6629 24.5656 43.7244 24.5656C42.7859 24.5656 41.8849 24.725 41.0476 25.018H21.9589V15.491Z" fill="white"/>
<path d="M51.7713 15.491V25.018H130V15.491H51.7713Z" fill="white"/>
<path d="M21.9589 30.982H35.8362C35.7359 31.485 35.6833 32.0051 35.6833 32.5373C35.6833 36.9399 39.2834 40.509 43.7244 40.509H21.9589V30.982Z" fill="white"/>
<path d="M66.6393 30.982H51.7713V32.6086H51.7651C51.7265 36.9784 48.1414 40.509 43.7244 40.509H130V30.982H85.4721V35.7068H66.6393V30.982Z" fill="white"/>
<path d="M18.6041 0H0V9.52697H18.6041V0Z" fill="white"/>
<path d="M18.6041 15.491H0V25.018H18.6041V15.491Z" fill="white"/>
<path d="M18.6041 30.982H0V40.509H6.17389C7.12876 37.1635 10.2317 34.7122 13.9121 34.7122C15.6632 34.7122 17.2836 35.2672 18.6041 36.2093V30.982Z" fill="white"/>
<path d="M6.83565 46.473C8.19556 48.9638 10.8545 50.6556 13.9121 50.6556C16.9696 50.6556 19.6285 48.9638 20.9885 46.473H130V56H0V46.473H6.83565Z" fill="white"/>
</svg>
