<svg width="90" height="90" viewBox="0 0 90 90" fill="none" xmlns="http://www.w3.org/2000/svg">
<path fill-rule="evenodd" clip-rule="evenodd" d="M49.0772 89.8178C47.7342 89.9384 46.3743 90 45 90C28.6894 90 14.4056 81.3224 6.51347 68.3319H6.57747L7.37513 66.1623H10.8902L11.6931 68.3319H12.3738L9.44374 60.5893H8.82156L6.13296 67.6938C2.23442 61.0313 0 53.2766 0 45C0 20.1472 20.1472 0 45 0C69.8528 0 90 20.1472 90 45C90 67.5224 73.454 86.1803 51.8543 89.4813V87.6467L52.9216 87.1784V86.3289L51.8543 86.8081V84.1399L52.9216 83.628V82.7894L51.8543 83.2904V81.6459H51.3425V83.4973L49.589 84.3468V82.8221H49.0772V84.5537L48.0098 85.0656V85.9151L49.0772 85.4032V88.0714L48.0098 88.5724V89.4219L49.0772 88.91V89.8178ZM49.589 89.7689C50.2121 89.7058 50.8315 89.6299 51.4468 89.5417H51.3425V87.8536L49.589 88.7031V89.7689ZM76.6513 45C76.6513 62.4805 62.4805 76.6513 45 76.6513C27.5195 76.6513 13.3487 62.4805 13.3487 45C13.3487 27.5195 27.5195 13.3487 45 13.3487C62.4805 13.3487 76.6513 27.5195 76.6513 45ZM49.2784 10.3862C49.7748 9.95365 50.0672 9.3297 50.1559 8.51431H49.4965C49.4149 9.17017 49.2004 9.66295 48.853 9.99265C48.5056 10.3188 47.9898 10.4819 47.3055 10.4819C46.6142 10.4819 46.0647 10.216 45.657 9.68422C45.2529 9.15244 45.0508 8.43986 45.0508 7.54648V6.59992C45.0508 5.67463 45.2582 4.94965 45.673 4.42496C46.0913 3.90028 46.6515 3.63793 47.3534 3.63793C48.619 3.63793 49.3334 4.29556 49.4965 5.61082H50.1559C50.0779 4.82025 49.7978 4.20162 49.3157 3.75492C48.8371 3.30469 48.183 3.07957 47.3534 3.07957C46.7649 3.07957 46.2438 3.22492 45.79 3.51563C45.3397 3.80278 44.9941 4.21225 44.753 4.74403C44.512 5.2758 44.3914 5.88557 44.3914 6.57333V7.57839C44.395 8.25552 44.5173 8.85819 44.7583 9.38642C44.9994 9.91111 45.3397 10.317 45.7793 10.6042C46.2225 10.8913 46.7312 11.0349 47.3055 11.0349C48.128 11.0349 48.7857 10.8187 49.2784 10.3862ZM67.6601 14.5464C67.4332 14.869 67.0769 15.1207 66.5913 15.3015C66.1091 15.4823 65.5685 15.5727 64.9693 15.5727C64.3631 15.5727 63.8243 15.4274 63.3527 15.1367C62.8812 14.846 62.5161 14.4347 62.2573 13.903C61.9985 13.3712 61.8673 12.7614 61.8638 12.0737V11.0952C61.8638 10.021 62.135 9.17371 62.6774 8.55331C63.2198 7.92936 63.9483 7.61738 64.863 7.61738C65.6607 7.61738 66.3023 7.82123 66.788 8.22893C67.2737 8.63308 67.5626 9.19144 67.6548 9.90402H67.0007C66.905 9.33679 66.6728 8.90783 66.3041 8.61712C65.9389 8.32287 65.4604 8.17575 64.8683 8.17575C64.1451 8.17575 63.5725 8.43277 63.1507 8.94682C62.7288 9.46087 62.5179 10.1859 62.5179 11.1218V12.0364C62.5179 12.6249 62.6171 13.1461 62.8157 13.5999C63.0177 14.0501 63.3049 14.3993 63.6771 14.6475C64.0529 14.8956 64.4837 15.0197 64.9693 15.0197C65.533 15.0197 66.0169 14.9311 66.4211 14.7538C66.6834 14.6368 66.8784 14.5003 67.006 14.3443V12.3449H64.9268V11.7918H67.6601V14.5464ZM76.9733 20.6943V28.437H79.0897C79.7492 28.437 80.3323 28.2916 80.8393 28.0009C81.3498 27.7102 81.7451 27.2972 82.0251 26.7619C82.3052 26.2266 82.4453 25.6132 82.4453 24.9219V24.2094C82.4453 23.5216 82.3034 22.9083 82.0198 22.3694C81.7398 21.8306 81.348 21.4175 80.8446 21.1304C80.3412 20.8397 79.7722 20.6943 79.1376 20.6943H76.9733ZM77.6274 27.8839V21.2527H79.1482C79.9424 21.2562 80.5823 21.5257 81.068 22.061C81.5536 22.5963 81.7965 23.3089 81.7965 24.1987V24.8794C81.7965 25.8011 81.5501 26.5332 81.0573 27.0756C80.5645 27.6145 79.9105 27.8839 79.0951 27.8839H77.6274ZM86.3851 46.5362H82.8701L82.0724 48.7059H81.3864L84.3165 40.9632H84.9387L87.8688 48.7059H87.1881L86.3851 46.5362ZM83.0722 45.9779H86.1777L84.6249 41.7609L83.0722 45.9779ZM78.0953 64.6201H81.7167V64.0671H78.0953V61.1477H82.2325V60.5893H77.4412V68.3319H82.2591V67.7789H78.0953V64.6201ZM65.4793 81.6429V73.9002H67.7659C68.5955 73.9002 69.2247 74.0722 69.6537 74.416C70.0827 74.7564 70.2971 75.2598 70.2971 75.9263C70.2971 76.3269 70.1872 76.6761 69.9674 76.9739C69.7512 77.2681 69.4534 77.4791 69.0741 77.6067C69.5243 77.7059 69.8859 77.9275 70.1589 78.2714C70.4354 78.6153 70.5737 79.0123 70.5737 79.4626C70.5737 80.1468 70.3521 80.6821 69.9089 81.0685C69.4693 81.4514 68.856 81.6429 68.069 81.6429H65.4793ZM66.1333 77.9204V81.0898H68.0956C68.6557 81.0898 69.0989 80.948 69.425 80.6644C69.7547 80.3772 69.9196 79.9802 69.9196 79.4732C69.9196 78.9946 69.7618 78.6171 69.4463 78.3405C69.1343 78.0605 68.7018 77.9204 68.1488 77.9204H66.1333ZM66.1333 77.3727H67.9201C68.4661 77.3621 68.8879 77.2344 69.1857 76.9898C69.4871 76.7417 69.6377 76.3818 69.6377 75.9103C69.6377 75.414 69.4818 75.0489 69.1698 74.8149C68.8614 74.5773 68.3934 74.4586 67.7659 74.4586H66.1333V77.3727ZM42.9609 84.4554H46.5717V83.897H42.9609V80.8871H47.1035V80.3288H42.3069V88.0714H42.9609V84.4554ZM51.3425 87.015L49.589 87.8645V85.1963L51.3425 84.3468V87.015ZM20.0456 81.4538V73.7111H22.2099C22.8445 73.7111 23.4135 73.8565 23.9169 74.1472C24.4203 74.4343 24.812 74.8474 25.0921 75.3862C25.3757 75.9251 25.5175 76.5384 25.5175 77.2262V77.9388C25.5175 78.6301 25.3775 79.2434 25.0974 79.7787C24.8174 80.314 24.4221 80.727 23.9116 81.0177C23.4046 81.3084 22.8214 81.4538 22.162 81.4538H20.0456ZM20.6996 74.2695V80.9007H22.1673C22.9827 80.9007 23.6368 80.6313 24.1296 80.0924C24.6224 79.55 24.8688 78.818 24.8688 77.8962V77.2155C24.8688 76.3257 24.6259 75.6131 24.1402 75.0778C23.6545 74.5425 23.0146 74.273 22.2205 74.2695H20.6996ZM26.7589 81.7261V75.0936H27.1619V79.5043C27.3725 79.2067 27.5939 78.9743 27.8262 78.8073C28.0586 78.6331 28.3018 78.5459 28.5559 78.5459C28.8173 78.5459 29.0278 78.6367 29.1876 78.8182C29.3473 78.9997 29.4272 79.2611 29.4272 79.6024C29.4272 80.0089 29.3074 80.3756 29.0678 80.7023C28.8282 81.029 28.4978 81.2868 28.0767 81.4756C27.888 81.5627 27.6992 81.6244 27.5104 81.6607C27.3217 81.7043 27.1365 81.7261 26.955 81.7261H26.7589ZM28.3817 79.0361C28.1711 79.0361 27.9533 79.1232 27.7282 79.2974C27.5104 79.4717 27.3217 79.6786 27.1619 79.9182V81.4102C27.2926 81.4102 27.4414 81.3739 27.6084 81.3013C27.7827 81.2287 27.9533 81.1307 28.1203 81.0072C28.2873 80.8766 28.4289 80.7241 28.545 80.5498C28.7193 80.2957 28.8064 79.998 28.8064 79.6568C28.8064 79.4608 28.7737 79.3083 28.7084 79.1994C28.6503 79.0905 28.5414 79.0361 28.3817 79.0361ZM9.12999 61.387L10.6828 65.6039H7.57721L9.12999 61.387ZM13.0941 61.9717V68.6042H13.2901C13.4716 68.6042 13.6568 68.5824 13.8455 68.5388C14.0343 68.5025 14.2231 68.4408 14.4119 68.3537C14.833 68.1649 15.1633 67.9072 15.4029 67.5805C15.6425 67.2538 15.7623 66.8871 15.7623 66.4805C15.7623 66.1393 15.6825 65.8779 15.5227 65.6964C15.363 65.5149 15.1525 65.4241 14.8911 65.4241C14.637 65.4241 14.3937 65.5112 14.1614 65.6855C13.929 65.8525 13.7076 66.0848 13.497 66.3825V61.9717H13.0941ZM14.0634 66.1756C14.2885 66.0013 14.5063 65.9142 14.7168 65.9142C14.8766 65.9142 14.9855 65.9686 15.0436 66.0775C15.1089 66.1864 15.1416 66.3389 15.1416 66.535C15.1416 66.8762 15.0544 67.1739 14.8802 67.428C14.764 67.6023 14.6224 67.7547 14.4555 67.8854C14.2885 68.0088 14.1178 68.1069 13.9436 68.1795C13.7766 68.2521 13.6277 68.2884 13.497 68.2884V66.7963C13.6568 66.5567 13.8455 66.3498 14.0634 66.1756ZM5.5411 44.9941H1.91971V48.1528H6.08351V48.7059H1.26562V40.9632H6.05692V41.5216H1.91971V44.441H5.5411V44.9941ZM7.0431 48.9782V42.3457H7.44603V46.7564C7.6566 46.4588 7.87803 46.2264 8.11038 46.0594C8.3427 45.8852 8.58595 45.7981 8.84006 45.7981C9.10144 45.7981 9.31201 45.8888 9.47173 46.0703C9.63145 46.2518 9.71132 46.5132 9.71132 46.8545C9.71132 47.261 9.59153 47.6277 9.35193 47.9544C9.11234 48.2811 8.78197 48.5389 8.36087 48.7277C8.17209 48.8148 7.98331 48.8765 7.79453 48.9128C7.60579 48.9564 7.42063 48.9782 7.23912 48.9782H7.0431ZM8.66579 46.2881C8.45526 46.2881 8.23746 46.3753 8.01238 46.5495C7.79453 46.7238 7.60579 46.9307 7.44603 47.1703V48.6623C7.57673 48.6623 7.72559 48.626 7.89258 48.5534C8.06681 48.4808 8.23746 48.3828 8.40445 48.2594C8.5714 48.1287 8.71299 47.9762 8.82917 47.8019C9.00344 47.5478 9.09055 47.2501 9.09055 46.9089C9.09055 46.7129 9.05787 46.5604 8.99254 46.4515C8.93445 46.3426 8.82555 46.2881 8.66579 46.2881ZM7.68179 20.6943V28.437H10.2715C11.0586 28.437 11.6719 28.2455 12.1115 27.8627C12.5546 27.4762 12.7762 26.9409 12.7762 26.2567C12.7762 25.8065 12.6379 25.4094 12.3614 25.0655C12.0884 24.7216 11.7268 24.5001 11.2766 24.4008C11.6559 24.2732 11.9537 24.0622 12.17 23.768C12.3898 23.4702 12.4997 23.121 12.4997 22.7204C12.4997 22.0539 12.2852 21.5505 11.8562 21.2101C11.4273 20.8663 10.798 20.6943 9.96842 20.6943H7.68179ZM8.33587 27.8839V24.7146H10.3513C10.9043 24.7146 11.3369 24.8546 11.6488 25.1347C11.9644 25.4112 12.1221 25.7887 12.1221 26.2673C12.1221 26.7743 11.9573 27.1714 11.6276 27.4585C11.3014 27.7421 10.8583 27.8839 10.2981 27.8839H8.33587ZM10.1226 24.1668H8.33587V21.2527H9.96842C10.5959 21.2527 11.0639 21.3715 11.3723 21.609C11.6843 21.843 11.8403 22.2081 11.8403 22.7044C11.8403 23.1759 11.6896 23.5358 11.3883 23.7839C11.0905 24.0286 10.6686 24.1562 10.1226 24.1668ZM13.9378 22.0768V28.7093H14.1339C14.3154 28.7093 14.5006 28.6875 14.6893 28.6439C14.8781 28.6076 15.0669 28.5459 15.2556 28.4588C15.6767 28.27 16.0071 28.0122 16.2467 27.6855C16.4863 27.3588 16.6061 26.9921 16.6061 26.5855C16.6061 26.2443 16.5262 25.9829 16.3665 25.8014C16.2067 25.6199 15.9962 25.5291 15.7348 25.5291C15.4807 25.5291 15.2375 25.6163 15.0051 25.7905C14.7728 25.9575 14.5514 26.1899 14.3408 26.4875V22.0768H13.9378ZM14.9071 26.2806C15.1322 26.1064 15.35 26.0192 15.5606 26.0192C15.7203 26.0192 15.8292 26.0737 15.8873 26.1826C15.9526 26.2915 15.9853 26.444 15.9853 26.64C15.9853 26.9812 15.8982 27.2789 15.7239 27.5331C15.6078 27.7073 15.4662 27.8598 15.2992 27.9905C15.1322 28.1139 14.9616 28.2119 14.7873 28.2845C14.6203 28.3571 14.4715 28.3934 14.3408 28.3934V26.9014C14.5006 26.6618 14.6893 26.4549 14.9071 26.2806ZM29.653 11.6991H26.0422V15.3151H25.3881V7.57248H30.1847V8.13084H26.0422V11.1407H29.653V11.6991ZM58.6702 21.3226L17.6597 45L58.6702 68.6774V21.3226Z" fill="white"/>
</svg>
