<svg width="717" height="276" viewBox="0 0 717 276" fill="none" 
    xmlns="http://www.w3.org/2000/svg">
    <path d="M206.5 40.9999C219 50.9998 237.951 48.2688 258.5 37C268.217 31.6711 279.582 29.6106 290.335 29.0238C320.559 29.8127 345.908 50.037 354.163 77.5695C355.831 84.4714 356.794 91.6485 356.97 99.0203C356.951 99.6826 356.922 100.343 356.883 101H356.999C357 101.166 357 101.333 357 101.5V110H300V130H291.26C293.063 128.523 294.213 126.28 294.213 123.768C294.213 119.32 290.607 115.714 286.159 115.714C285.093 115.714 284.076 115.921 283.144 116.298C273.174 101.772 259.227 90.1889 242.873 83.1194C243.09 82.3895 243.207 81.6163 243.207 80.8157C243.207 76.3679 239.601 72.7622 235.154 72.7622C231.685 72.7622 228.729 74.9548 227.595 78.0295C220.547 76.3409 213.19 75.4467 205.624 75.4467C196.249 75.4467 187.194 76.8198 178.651 79.3759C177.972 75.6151 174.682 72.7622 170.726 72.7622C166.278 72.7622 162.672 76.3679 162.672 80.8157C162.672 82.4204 163.141 83.9154 163.95 85.1711C150.455 91.8605 138.797 101.697 129.936 113.722L129.936 72.8367C129.936 68.5125 124.094 65.007 116.887 65.007C109.679 65.007 103.837 68.5125 103.837 72.8367L103.837 72.8533V203.333C103.837 207.16 108.413 210.346 114.46 211.028C114.389 211.46 114.351 211.904 114.351 212.356C114.351 216.804 117.957 220.41 122.405 220.41C123.746 220.41 125.01 220.082 126.123 219.502C135.79 234.811 149.756 247.133 166.326 254.773C150.339 268.034 129.844 276 107.5 276C105.315 276 103.147 275.924 101 275.774V275.999C45.1731 275.729 0 230.39 0 174.5V101.5C0 46.0457 44.4712 0.978313 99.6956 0.015625C150.418 0.520659 167.884 13.1582 194.607 32.494C198.35 35.2028 202.276 38.0431 206.5 40.9999Z" fill="#D95141"/>
    <path d="M280.325 130C279.995 129.329 279.656 128.663 279.308 128.003C279.128 127.713 278.967 127.411 278.825 127.099C269.362 109.654 253.846 95.9712 235.094 88.869C233.271 88.8559 231.592 88.237 230.249 87.2036C222.467 84.7964 214.197 83.5002 205.624 83.5002C172.026 83.5002 143.078 103.411 129.936 132.076V136.006C141.982 106.384 171.052 85.4999 205 85.4999C236.604 85.4999 263.981 103.6 277.33 130H280.325Z" fill="#D95141"/>
    <path d="M129.936 201.363V196.994C139.059 219.427 157.945 236.849 181.32 243.984L179.786 245.85C157.622 238.618 139.55 222.333 129.936 201.363Z" fill="#D95141"/>
    <path fill-rule="evenodd" clip-rule="evenodd" d="M241.838 85.5163C242.05 84.8067 242.163 84.0549 242.163 83.2766C242.163 78.9523 238.658 75.4468 234.333 75.4468C230.961 75.4468 228.087 77.5785 226.985 80.5678C220.132 78.9261 212.98 78.0567 205.624 78.0567C196.509 78.0567 187.706 79.3917 179.4 81.8767C178.74 78.2204 175.542 75.4468 171.695 75.4468C167.371 75.4468 163.865 78.9523 163.865 83.2766C163.865 84.8366 164.322 86.2902 165.108 87.5109C147.514 96.232 133.132 110.456 124.212 127.932C123.542 127.745 122.836 127.645 122.106 127.645C117.782 127.645 114.277 131.151 114.277 135.475C114.277 138.438 115.923 141.017 118.35 142.347C115.703 150.897 114.277 159.984 114.277 169.404C114.277 181.724 116.715 193.474 121.136 204.198C118.613 205.497 116.887 208.129 116.887 211.163C116.887 215.487 120.392 218.993 124.716 218.993C126.02 218.993 127.25 218.674 128.331 218.11C138.114 233.604 152.428 245.951 169.41 253.292C169.199 254.002 169.085 254.754 169.085 255.532C169.085 259.856 172.591 263.362 176.915 263.362C180.287 263.362 183.161 261.23 184.263 258.241C191.116 259.882 198.268 260.752 205.624 260.752C217.141 260.752 228.16 258.62 238.308 254.731C239.719 256.79 242.088 258.142 244.773 258.142C249.097 258.142 252.603 254.636 252.603 250.312C252.603 249.498 252.478 248.712 252.248 247.974C266.972 239.218 279.026 226.44 286.894 211.155C291.05 210.966 294.362 207.536 294.362 203.333C294.362 201.328 293.608 199.499 292.369 198.114C295.355 189.086 296.972 179.434 296.972 169.404C296.972 155.793 293.995 142.877 288.656 131.272C290.537 129.842 291.752 127.581 291.752 125.035C291.752 120.711 288.246 117.206 283.922 117.206C282.886 117.206 281.896 117.407 280.991 117.773C271.297 103.65 257.738 92.3894 241.838 85.5163ZM229.564 89.4869C230.871 90.4917 232.503 91.0934 234.276 91.1061C252.506 98.0109 267.591 111.313 276.791 128.273C276.929 128.577 277.087 128.872 277.262 129.154C283.182 140.398 286.532 153.205 286.532 166.794C286.532 211.478 250.308 247.702 205.624 247.702C160.94 247.702 124.716 211.478 124.716 166.794C124.716 122.11 160.94 85.8865 205.624 85.8865C213.959 85.8865 221.999 87.1467 229.564 89.4869Z" fill="#D95141"/>
    <path d="M205.813 99.3844C206.327 98.4854 206.643 97.2542 206.643 95.8962C206.643 93.1435 205.342 90.912 203.736 90.912C202.13 90.912 200.828 93.1435 200.828 95.8962C200.828 97.2542 201.145 98.4854 201.659 99.3844V180.628H205.813V99.3844Z" fill="#D95141"/>
    <path d="M230.575 176.478C231.473 176.99 232.702 177.305 234.056 177.305C236.809 177.306 239.041 176.004 239.041 174.399C239.041 172.793 236.81 171.491 234.057 171.49C232.696 171.49 231.462 171.809 230.562 172.324L198.337 172.321L198.336 176.474L230.575 176.478Z" fill="#D95141"/>
    <path d="M303.005 110.018H319.618V129.955H303.005V110.018Z" fill="#D95141"/>
    <path d="M322.941 110.018H342.047V129.955H322.941V110.018Z" fill="#D95141"/>
    <path d="M347.032 110.018H367.799V129.955H347.032V110.018Z" fill="#D95141"/>
    <path d="M371.122 107.526H396.874V127.463H371.122V107.526Z" fill="#D95141"/>
    <path d="M401.858 107.526H427.609V127.463H401.858V107.526Z" fill="#D95141"/>
    <path d="M432.594 107.526H460.837V127.463H432.594V107.526Z" fill="#D95141"/>
    <path d="M465.822 105.034H501.542V124.971H465.822V105.034Z" fill="#D95141"/>
    <path d="M504.865 105.034H543.077V124.971H504.865V105.034Z" fill="#D95141"/>
    <path d="M546.4 105.034H584.612V124.971H546.4V105.034Z" fill="#D95141"/>
    <path fill-rule="evenodd" clip-rule="evenodd" d="M669.077 94.4695C670.26 92.7344 671 90.254 671 87.5C671 82.2533 668.314 78 665 78C661.686 78 659 82.2533 659 87.5C659 90.4856 659.87 93.1495 661.23 94.891L645.127 95.756C646.85 94.2625 648 91.5715 648 88.5C648 83.8056 645.314 80 642 80C638.686 80 636 83.8056 636 88.5C636 91.8012 637.328 94.6628 639.269 96.0706L623.74 96.9047C624.53 95.5502 625 93.8483 625 92C625 87.5817 622.314 84 619 84C615.686 84 613 87.5817 613 92C613 94.0799 613.595 95.9745 614.571 97.3972L608.974 97.6979C599.047 98.2311 591.432 106.711 591.965 116.637L592.676 129.865C593.209 139.792 601.689 147.407 611.616 146.874L614.571 146.715C614.204 147.717 614 148.829 614 150C614 154.418 616.91 158 620.5 158C624.09 158 627 154.418 627 150C627 148.581 626.7 147.248 626.173 146.092L638.245 145.444C637.46 146.737 637 148.307 637 150C637 154.418 640.134 158 644 158C647.866 158 651 154.418 651 150C651 148.037 650.381 146.239 649.355 144.847L663.98 144.061C662.764 145.525 662 147.644 662 150C662 154.418 664.686 158 668 158C671.314 158 674 154.418 674 150C674 147.412 673.079 145.112 671.649 143.649L699.721 142.142C709.648 141.608 717.263 133.129 716.729 123.202L716.019 109.974C715.486 100.047 707.006 92.4322 697.079 92.9654L669.077 94.4695ZM625.372 103.324L641.644 101.748L642.271 108.22L625.999 109.796L625.372 103.324ZM642.57 138.026L627.395 138.56L627.135 131.171L642.31 130.637L642.57 138.026ZM650.098 137.964L666.436 137.389L666.176 130L649.837 130.575L650.098 137.964ZM665.272 99L649 100.576L649.627 107.048L665.899 105.472L665.272 99ZM672.711 102.868C672.848 103.869 673.77 104.57 674.771 104.433L678.959 103.86C680.539 103.644 681.644 102.188 681.428 100.608C681.212 99.0275 679.756 97.9218 678.176 98.138L673.653 98.7567C672.837 98.8682 672.266 99.6199 672.378 100.435L672.711 102.868ZM674.775 136.985C674.38 136.993 674.053 136.679 674.045 136.284L673.957 131.951C673.949 131.528 674.285 131.177 674.709 131.169L680.093 131.059C681.698 131.026 683.027 132.302 683.059 133.908C683.092 135.513 681.817 136.842 680.211 136.874L674.775 136.985ZM617.752 105.601C617.674 104.97 617.099 104.522 616.468 104.601L614.892 104.798C613.31 104.995 612.187 106.438 612.385 108.021C612.582 109.603 614.025 110.726 615.607 110.528L617.395 110.305C617.908 110.241 618.273 109.773 618.209 109.259L617.752 105.601ZM618.441 132.143C619.072 132.064 619.647 132.511 619.725 133.142L620.182 136.8C620.246 137.314 619.881 137.783 619.368 137.847L617.581 138.07C615.998 138.267 614.555 137.145 614.358 135.562C614.16 133.98 615.283 132.537 616.865 132.339L618.441 132.143Z" fill="#D95141"/>
    <path d="M306.598 191.71L305.824 142.497L315.737 142.342L316.046 161.956L318.788 161.913L318.94 171.615L316.198 171.658L316.511 191.554L306.598 191.71ZM322.807 171.554L322.654 161.852L325.396 161.809L325.088 142.194L335.001 142.039L335.774 191.251L325.861 191.407L325.549 171.511L322.807 171.554Z" fill="#D95141"/>
    <path d="M346.126 180.189L345.838 161.839C345.801 159.543 346.774 157.277 348.754 155.043C351.243 152.331 354.433 150.922 358.322 150.814L358.466 159.953C356.36 160.174 355.249 161.082 355.133 162.678L355.391 179.059C355.513 180.885 356.653 181.805 358.809 181.818L358.953 190.957C354.36 191.029 350.769 189.234 348.18 185.571C346.837 183.67 346.153 181.876 346.126 180.189ZM362.187 190.906L362.043 181.767C364.008 181.502 365.072 180.594 365.235 179.044L364.905 162.524C364.551 160.842 363.459 159.968 361.629 159.903L361.486 150.764C365.891 150.695 369.364 152.422 371.904 155.945C373.247 157.846 373.932 159.663 373.959 161.397L374.248 179.747C374.284 182.09 373.313 184.402 371.333 186.684C368.938 189.394 365.889 190.801 362.187 190.906Z" fill="#D95141"/>
    <path d="M384.634 179.865L384.171 150.407L393.733 150.257L394.178 178.589C394.3 180.369 395.392 181.266 397.455 181.28L397.602 190.631C393.009 190.703 389.395 188.955 386.761 185.386C385.371 183.486 384.662 181.646 384.634 179.865ZM400.836 190.58L400.689 181.229C402.701 180.963 403.788 180.032 403.95 178.436L403.505 150.103L413.066 149.953L413.529 179.41C413.564 181.613 412.568 183.856 410.541 186.138C407.961 188.991 404.726 190.472 400.836 190.58Z" fill="#D95141"/>
    <path d="M424.36 189.858L423.73 149.785L433.291 149.635L433.361 154.064C434.968 151.929 437.172 150.441 439.971 149.6C440.951 149.303 441.933 149.147 442.917 149.132L445.448 149.092L443.417 158.547C440.465 158.64 437.931 159.969 435.815 162.534C434.297 164.387 433.553 166.297 433.584 168.265L433.921 189.708L424.36 189.858Z" fill="#D95141"/>
    <path d="M452.26 149.899L452.107 140.197L482.549 139.719L482.701 149.421L472.437 149.582L473.058 189.093L463.145 189.249L462.524 149.738L452.26 149.899Z" fill="#D95141"/>
    <path d="M491.916 177.896L491.628 159.547C491.592 157.25 492.564 154.985 494.545 152.75C497.034 150.039 500.223 148.629 504.112 148.521L504.256 157.661C502.15 157.881 501.039 158.79 500.924 160.385L501.181 176.766C501.304 178.593 502.443 179.512 504.6 179.525L504.744 188.665C500.15 188.737 496.559 186.942 493.97 183.279C492.628 181.378 491.943 179.584 491.916 177.896ZM507.978 188.614L507.834 179.474C509.799 179.209 510.863 178.302 511.026 176.752L510.696 160.232C510.341 158.55 509.249 157.676 507.42 157.611L507.276 148.472C511.682 148.402 515.155 150.129 517.695 153.652C519.037 155.553 519.722 157.371 519.749 159.105L520.038 177.454C520.075 179.798 519.103 182.11 517.123 184.391C514.728 187.101 511.679 188.509 507.978 188.614Z" fill="#D95141"/>
    <path d="M530.425 177.572L529.962 148.115L539.523 147.964L539.969 176.297C540.09 178.076 541.183 178.973 543.246 178.988L543.393 188.338C538.799 188.411 535.186 186.662 532.551 183.094C531.162 181.194 530.453 179.353 530.425 177.572ZM546.627 188.287L546.48 178.937C548.491 178.671 549.578 177.74 549.741 176.143L549.295 147.811L558.857 147.66L559.32 177.118C559.354 179.321 558.358 181.563 556.331 183.845C553.751 186.699 550.516 188.179 546.627 188.287Z" fill="#D95141"/>
    <path d="M570.15 187.566L569.52 147.493L579.082 147.342L579.151 151.772C580.758 149.637 582.962 148.149 585.762 147.308C586.741 147.011 587.723 146.855 588.708 146.84L591.239 146.8L589.207 156.255C586.255 156.348 583.721 157.677 581.605 160.242C580.087 162.094 579.344 164.004 579.375 165.973L579.712 187.416L570.15 187.566Z" fill="#D95141"/>
    <path d="M305.961 240.617L314.84 237.313C314.858 238.484 315.202 239.51 315.873 240.391C316.543 241.271 317.208 241.846 317.869 242.117L318.861 242.594L319.004 251.733C315.021 251.796 311.595 250.115 308.729 246.691C306.96 244.516 306.037 242.491 305.961 240.617ZM306.136 216.002C306.055 210.846 308.197 206.945 312.562 204.298C314.559 203.047 316.447 202.385 318.227 202.31L318.373 211.59C317.207 211.936 316.353 212.794 315.812 214.162C315.631 214.586 315.544 215.033 315.552 215.502C315.582 217.424 317.037 219.041 319.917 220.356C320.531 220.627 321.522 221.034 322.89 221.575C325.154 222.43 326.759 223.131 327.705 223.679C331.537 225.869 334.104 228.126 335.406 230.449C336.372 232.263 336.873 234.294 336.908 236.544C336.975 240.809 335.416 244.49 332.23 247.587C329.506 250.256 326.386 251.617 322.871 251.673L322.727 242.533C324.552 242.27 325.825 241.289 326.549 239.59C326.865 238.835 327.016 238.012 327.002 237.121C326.965 234.731 325.153 232.791 321.566 231.3C320.906 231.029 319.868 230.647 318.454 230.153C316.805 229.617 315.65 229.19 314.988 228.872C310.927 227.014 308.31 224.57 307.138 221.541C306.503 219.91 306.169 218.064 306.136 216.002ZM322.24 211.529L322.094 202.249C326.031 202.187 329.361 203.799 332.085 207.085C333.663 209.029 334.488 210.797 334.56 212.39L325.468 215.557C325.437 213.588 324.455 212.268 322.522 211.595C322.334 211.551 322.24 211.529 322.24 211.529Z" fill="#D95141"/>
    <path d="M344.018 211.609L343.866 201.907L374.307 201.428L374.46 211.13L364.195 211.291L364.817 250.802L354.904 250.958L354.283 211.447L344.018 211.609Z" fill="#D95141"/>
    <path d="M383.211 236.941L382.651 201.297L392.564 201.141L393.124 236.785C393.201 238.706 394.299 239.954 396.418 240.531C396.747 240.619 396.982 240.662 397.123 240.66L397.28 250.643C394.562 250.686 391.828 249.768 389.079 247.889C385.286 245.183 383.33 241.533 383.211 236.941ZM401.076 250.583L400.919 240.6C401.763 240.587 402.647 240.175 403.572 239.363C404.357 238.601 404.765 237.68 404.795 236.601L404.234 200.957L414.077 200.803L414.637 236.447C414.72 241.743 412.439 245.74 407.794 248.439C405.471 249.835 403.232 250.55 401.076 250.583Z" fill="#D95141"/>
    <path d="M425.163 249.853L424.389 200.641L434.302 200.485L435.075 249.697L425.163 249.853ZM438.872 249.638L438.716 239.725C439.747 239.709 440.701 239.272 441.579 238.414C442.223 237.654 442.56 236.758 442.591 235.726L442.253 214.213C442.238 213.276 441.825 212.368 441.015 211.49C440.253 210.752 439.333 210.368 438.254 210.338L438.098 200.425C443.301 200.343 447.274 202.601 450.019 207.199C451.415 209.568 452.131 211.854 452.166 214.057L452.504 235.57C452.588 240.913 450.284 244.934 445.591 247.633C443.268 248.936 441.028 249.604 438.872 249.638Z" fill="#D95141"/>
    <path d="M463.385 249.252L462.612 200.039L472.524 199.884L473.298 249.096L463.385 249.252Z" fill="#D95141"/>
    <path d="M483.746 235.219L483.383 212.089C483.344 209.605 484.358 207.058 486.427 204.447C489.186 201.028 492.721 199.261 497.032 199.147L497.188 209.059C495.267 209.137 494.019 210.234 493.443 212.353C493.354 212.683 493.311 212.918 493.313 213.058L493.659 235.064C493.689 236.985 494.765 238.281 496.885 238.951C497.214 239.039 497.449 239.083 497.59 239.08L497.747 249.063C495.075 249.105 492.389 248.187 489.687 246.307C485.846 243.555 483.866 239.859 483.746 235.219ZM501.614 249.003L501.457 239.02C502.207 239.008 503.044 238.596 503.969 237.785C504.847 236.974 505.3 236.006 505.33 234.88L504.984 212.875C504.97 212.031 504.558 211.147 503.746 210.222C502.984 209.437 502.063 209.03 500.985 209L500.829 199.087C505.563 199.013 509.391 200.992 512.314 205.024C513.991 207.342 514.846 209.532 514.879 211.594L515.242 234.724C515.324 239.927 513.067 243.947 508.47 246.785C506.055 248.23 503.77 248.969 501.614 249.003Z" fill="#D95141"/>
    <path d="M524.4 237.182L533.279 233.878C533.298 235.05 533.642 236.076 534.312 236.956C534.982 237.836 535.648 238.412 536.308 238.682L537.3 239.159L537.444 248.299C533.46 248.361 530.035 246.681 527.168 243.256C525.399 241.081 524.477 239.056 524.4 237.182ZM524.576 212.567C524.495 207.411 526.637 203.51 531.002 200.863C532.998 199.613 534.887 198.95 536.667 198.875L536.813 208.155C535.646 208.502 534.792 209.359 534.251 210.727C534.07 211.152 533.984 211.599 533.991 212.067C534.021 213.989 535.477 215.607 538.357 216.921C538.971 217.193 539.962 217.599 541.33 218.14C543.593 218.995 545.198 219.697 546.145 220.244C549.976 222.434 552.543 224.691 553.846 227.015C554.812 228.828 555.313 230.859 555.348 233.109C555.415 237.374 553.856 241.055 550.669 244.153C547.945 246.821 544.826 248.183 541.311 248.238L541.167 239.098C542.991 238.835 544.265 237.854 544.988 236.155C545.305 235.4 545.456 234.577 545.442 233.687C545.404 231.296 543.592 229.356 540.006 227.865C539.345 227.594 538.308 227.212 536.894 226.719C535.244 226.182 534.089 225.755 533.428 225.437C529.367 223.579 526.75 221.135 525.577 218.106C524.942 216.476 524.608 214.629 524.576 212.567ZM540.679 208.094L540.534 198.814C544.471 198.752 547.801 200.364 550.525 203.65C552.102 205.594 552.927 207.363 552.999 208.955L543.907 212.122C543.876 210.154 542.894 208.833 540.962 208.16C540.774 208.116 540.679 208.094 540.679 208.094Z" fill="#D95141"/>
    <path d="M250.332 207.476L250.141 195.29C253.947 194.856 256.172 193.227 256.815 190.404C256.931 189.839 256.984 189.245 256.974 188.62C256.915 184.87 255.128 182.523 251.613 181.578C249.792 181.044 247.506 180.799 244.757 180.842L244.565 168.656C251.689 168.544 255.627 166.544 256.379 162.657C256.493 161.968 256.544 161.248 256.532 160.498C256.478 157.061 254.57 154.966 250.808 154.212C250.307 154.158 249.868 154.102 249.492 154.046L249.301 141.86C254.55 141.777 259.044 143.363 262.783 146.617C266.65 149.994 268.627 154.526 268.717 160.213C268.813 166.337 267.01 170.928 263.308 173.987C263.061 174.178 262.844 174.338 262.659 174.466C266.132 176.724 268.222 180.411 268.927 185.525C269.068 186.523 269.146 187.522 269.162 188.522C269.283 196.208 266.15 201.727 259.765 205.078C256.726 206.626 253.582 207.425 250.332 207.476ZM227.759 191.048L239.067 188.714C239.119 192.026 240.559 194.16 243.387 195.115C244.015 195.293 244.548 195.378 244.985 195.372L245.177 207.558C240.177 207.636 235.865 205.672 232.239 201.666C229.312 198.4 227.819 194.86 227.759 191.048ZM227.255 158.99C227.181 154.303 229.054 150.179 232.874 146.618C236.201 143.566 239.958 142.006 244.145 141.941L244.337 154.127C241.717 154.48 239.957 155.821 239.056 158.148C238.757 159.027 238.615 159.967 238.631 160.967L227.255 158.99Z" fill="#D95141"/>
</svg>
