<svg width="183" height="188" viewBox="0 0 183 188" fill="none" 
    xmlns="http://www.w3.org/2000/svg">
    <path fill-rule="evenodd" clip-rule="evenodd" d="M127.561 10.0696C127.773 9.35994 127.886 8.60813 127.886 7.82979C127.886 3.50552 124.381 0 120.057 0C116.685 0 113.81 2.13168 112.708 5.12099C105.856 3.47933 98.7032 2.60993 91.3475 2.60993C82.2328 2.60993 73.4298 3.94489 65.1235 6.42997C64.4636 2.77363 61.2649 0 57.4185 0C53.0942 0 49.5887 3.50552 49.5887 7.82979C49.5887 9.38986 50.0449 10.8434 50.8313 12.0642C33.2377 20.7852 18.8557 35.0088 9.9353 52.4849C9.26536 52.2983 8.55922 52.1986 7.82979 52.1986C3.50552 52.1986 0 55.7041 0 60.0283C0 62.9916 1.64608 65.5703 4.07373 66.9001C1.42593 75.4501 0 84.5373 0 93.9575C0 106.277 2.43877 118.027 6.85987 128.751C4.33602 130.051 2.60993 132.682 2.60993 135.716C2.60993 140.041 6.11545 143.546 10.4397 143.546C11.7436 143.546 12.973 143.227 14.0543 142.664C23.8378 158.157 38.151 170.504 55.1336 177.845C54.9221 178.555 54.8085 179.307 54.8085 180.085C54.8085 184.409 58.3141 187.915 62.6383 187.915C66.0104 187.915 68.8846 185.783 69.9869 182.794C76.8393 184.436 83.9919 185.305 91.3475 185.305C102.864 185.305 113.883 183.174 124.032 179.284C125.442 181.344 127.812 182.695 130.496 182.695C134.821 182.695 138.326 179.189 138.326 174.865C138.326 174.051 138.202 173.266 137.971 172.527C152.696 163.771 164.749 150.993 172.617 135.708C176.773 135.519 180.085 132.09 180.085 127.887C180.085 125.882 179.331 124.053 178.092 122.668C181.079 113.639 182.695 103.987 182.695 93.9575C182.695 80.3463 179.718 67.4304 174.38 55.8254C176.261 54.3954 177.475 52.1338 177.475 49.5887C177.475 45.2644 173.97 41.7589 169.645 41.7589C168.609 41.7589 167.62 41.9603 166.714 42.326C157.021 28.2036 143.461 16.9426 127.561 10.0696ZM115.288 14.0402C116.594 15.0449 118.227 15.6466 119.999 15.6594C138.23 22.5641 153.315 35.8663 162.514 52.8259C162.653 53.1307 162.81 53.425 162.985 53.7075C168.905 64.951 172.255 77.758 172.255 91.3475C172.255 136.032 136.032 172.255 91.3476 172.255C46.6634 172.255 10.4398 136.032 10.4398 91.3475C10.4398 46.6634 46.6634 10.4397 91.3476 10.4397C99.682 10.4397 107.722 11.6999 115.288 14.0402Z" fill="#D95141" class="drum-rim"/>
    <path d="M119.267 97.8999C120.49 99.1854 122.306 100 124.333 100C128.015 100 131 97.3137 131 94C131 90.6863 128.015 88 124.333 88C122.254 88 120.397 88.857 119.174 90.2H91.1834C89.0571 90.2 87.3334 91.9237 87.3334 94.0499C87.3334 96.1762 89.0571 97.8999 91.1834 97.8999H119.267Z" fill="#D95141" class="hour-hand"/>
    <path d="M94.8999 27.7331C96.1854 26.5104 97 24.6942 97 22.6667C97 18.9848 94.3137 16 91 16C87.6863 16 85 18.9848 85 22.6667C85 24.7463 85.857 26.6035 87.2 27.8261V93.8166C87.2 95.9429 88.9237 97.6666 91.0499 97.6666C93.1762 97.6666 94.8999 95.9429 94.8999 93.8166V27.7331Z" fill="#D95141" class="minute-hand"/>
</svg>
